<?xml version="1.0" encoding="UTF-8" standalone="no"?>
<!-- Generator: Adobe Illustrator 16.0.0, SVG Export Plug-In . SVG Version: 6.00 Build 0)  -->

<svg
   xmlns:dc="http://purl.org/dc/elements/1.1/"
   xmlns:cc="http://creativecommons.org/ns#"
   xmlns:rdf="http://www.w3.org/1999/02/22-rdf-syntax-ns#"
   xmlns:svg="http://www.w3.org/2000/svg"
   xmlns="http://www.w3.org/2000/svg"
   xmlns:sodipodi="http://sodipodi.sourceforge.net/DTD/sodipodi-0.dtd"
   xmlns:inkscape="http://www.inkscape.org/namespaces/inkscape"
   version="1.1"
   id="Capa_1"
   x="0px"
   y="0px"
   width="229.6px"
   height="229.6px"
   viewBox="0 0 229.6 229.6"
   style="enable-background:new 0 0 229.6 229.6;"
   xml:space="preserve"
   sodipodi:docname="full-moon-circle_icon-icons.com_54673.svg"
   inkscape:version="0.92.3 (2405546, 2018-03-11)"><metadata
   id="metadata3859"><rdf:RDF><cc:Work
       rdf:about=""><dc:format>image/svg+xml</dc:format><dc:type
         rdf:resource="http://purl.org/dc/dcmitype/StillImage" /><dc:title></dc:title></cc:Work></rdf:RDF></metadata><defs
   id="defs3857" /><sodipodi:namedview
   pagecolor="#ffffff"
   bordercolor="#666666"
   borderopacity="1"
   objecttolerance="10"
   gridtolerance="10"
   guidetolerance="10"
   inkscape:pageopacity="0"
   inkscape:pageshadow="2"
   inkscape:window-width="1920"
   inkscape:window-height="1017"
   id="namedview3855"
   showgrid="false"
   inkscape:zoom="3.6933797"
   inkscape:cx="110.0618"
   inkscape:cy="114.8"
   inkscape:window-x="-8"
   inkscape:window-y="-8"
   inkscape:window-maximized="1"
   inkscape:current-layer="Capa_1" />
<g
   id="g3822">
	<circle
   cx="114.8"
   cy="114.8"
   r="114.8"
   id="circle3820" />
</g>
<g
   id="g3824">
</g>
<g
   id="g3826">
</g>
<g
   id="g3828">
</g>
<g
   id="g3830">
</g>
<g
   id="g3832">
</g>
<g
   id="g3834">
</g>
<g
   id="g3836">
</g>
<g
   id="g3838">
</g>
<g
   id="g3840">
</g>
<g
   id="g3842">
</g>
<g
   id="g3844">
</g>
<g
   id="g3846">
</g>
<g
   id="g3848">
</g>
<g
   id="g3850">
</g>
<g
   id="g3852">
</g>
<path
   style="fill:#f16d7f;stroke-width:0.27075472;opacity:0;fill-opacity:1"
   d="M 108.16651,229.32256 C 90.848163,228.19532 73.700343,223.17363 58.889153,214.89182 39.383449,203.98503 23.310426,187.39698 13.103754,167.63932 3.6506228,149.34034 -0.55225569,130.303 0.30866323,109.68274 1.7290732,75.661855 18.523862,43.793274 45.892926,23.185331 62.284544,10.843017 81.11035,3.3741548 102.34529,0.78868431 c 5.53219,-0.67357504 19.35768,-0.67493857 24.90943,-0.002457 26.79012,3.24508119 49.94211,14.37450769 68.51676,32.93680169 20.43903,20.42543 32.39627,47.529045 33.51098,75.959711 0.80191,20.45285 -3.17918,38.92409 -12.25467,56.85849 -8.00952,15.82792 -19.03688,29.06696 -33.04995,39.67857 -16.65434,12.61174 -36.03672,20.26814 -57.26463,22.6206 -3.54228,0.39255 -15.24802,0.69687 -18.5467,0.48216 z"
   id="path3861"
   inkscape:connector-curvature="0" /><path
   style="opacity:0;fill:#f16d7f;fill-opacity:1;stroke-width:0.27075472"
   d="M 106.81274,229.19374 C 91.97336,228.14226 77.224178,224.11049 63.814016,217.43981 52.318721,211.72165 43.091267,205.06325 33.825101,195.80023 19.751226,181.73113 9.9064954,165.06964 4.6183946,146.37 1.7519585,136.23379 0.51497161,128.16088 0.22078434,117.67 -0.4382389,94.16888 6.2603645,70.996665 19.435954,51.199718 27.016778,39.809173 37.53809,29.006936 48.73585,21.117501 78.46137,0.17424304 116.26511,-5.4408982 150.79427,5.9583519 c 13.74107,4.5363971 26.40259,11.6120001 37.78666,21.1162271 6.71905,5.609534 14.78479,14.387475 19.92865,21.688347 17.4408,24.754357 24.3724,55.362074 19.31341,85.281874 -6.06147,35.84868 -29.09032,66.90871 -61.74476,83.27788 -18.17638,9.11154 -39.09019,13.30064 -59.26549,11.87106 z"
   id="path4668"
   inkscape:connector-curvature="0" /><path
   style="opacity:0;fill:#f16d7f;fill-opacity:1;stroke-width:0.27075472"
   d="M 106.81274,229.19374 C 91.97336,228.14226 77.224178,224.11049 63.814016,217.43981 52.318721,211.72165 43.091267,205.06325 33.825101,195.80023 19.751226,181.73113 9.9064954,165.06964 4.6183946,146.37 1.7519585,136.23379 0.51497161,128.16088 0.22078434,117.67 -0.4382389,94.16888 6.2603645,70.996665 19.435954,51.199718 27.016778,39.809173 37.53809,29.006936 48.73585,21.117501 78.46137,0.17424304 116.26511,-5.4408982 150.79427,5.9583519 c 13.74107,4.5363971 26.40259,11.6120001 37.78666,21.1162271 6.71905,5.609534 14.78479,14.387475 19.92865,21.688347 17.4408,24.754357 24.3724,55.362074 19.31341,85.281874 -6.06147,35.84868 -29.09032,66.90871 -61.74476,83.27788 -18.17638,9.11154 -39.09019,13.30064 -59.26549,11.87106 z"
   id="path4670"
   inkscape:connector-curvature="0" /><path
   style="opacity:0;fill:#ff00ff;fill-opacity:1;stroke-width:0.27075472"
   d="M 106.81274,229.19374 C 91.97336,228.14226 77.224178,224.11049 63.814016,217.43981 52.318721,211.72165 43.091267,205.06325 33.825101,195.80023 19.751226,181.73113 9.9064954,165.06964 4.6183946,146.37 1.7519585,136.23379 0.51497161,128.16088 0.22078434,117.67 -0.4382389,94.16888 6.2603645,70.996665 19.435954,51.199718 27.016778,39.809173 37.53809,29.006936 48.73585,21.117501 78.46137,0.17424304 116.26511,-5.4408982 150.79427,5.9583519 c 13.74107,4.5363971 26.40259,11.6120001 37.78666,21.1162271 6.71905,5.609534 14.78479,14.387475 19.92865,21.688347 17.4408,24.754357 24.3724,55.362074 19.31341,85.281874 -6.06147,35.84868 -29.09032,66.90871 -61.74476,83.27788 -18.17638,9.11154 -39.09019,13.30064 -59.26549,11.87106 z"
   id="path4672"
   inkscape:connector-curvature="0" /><path
   style="opacity:0;fill:#ff00ff;fill-opacity:1;stroke-width:0.27075472"
   d="M 106.81274,229.19374 C 91.97336,228.14226 77.224178,224.11049 63.814016,217.43981 52.318721,211.72165 43.091267,205.06325 33.825101,195.80023 19.751226,181.73113 9.9064954,165.06964 4.6183946,146.37 1.7519585,136.23379 0.51497161,128.16088 0.22078434,117.67 -0.4382389,94.16888 6.2603645,70.996665 19.435954,51.199718 27.016778,39.809173 37.53809,29.006936 48.73585,21.117501 78.46137,0.17424304 116.26511,-5.4408982 150.79427,5.9583519 c 13.74107,4.5363971 26.40259,11.6120001 37.78666,21.1162271 6.71905,5.609534 14.78479,14.387475 19.92865,21.688347 17.4408,24.754357 24.3724,55.362074 19.31341,85.281874 -6.06147,35.84868 -29.09032,66.90871 -61.74476,83.27788 -18.17638,9.11154 -39.09019,13.30064 -59.26549,11.87106 z"
   id="path4674"
   inkscape:connector-curvature="0" /><path
   style="opacity:0;fill:#ff00ff;fill-opacity:1;stroke-width:0.27075472"
   d="M 106.81274,229.19374 C 91.97336,228.14226 77.224178,224.11049 63.814016,217.43981 52.318721,211.72165 43.091267,205.06325 33.825101,195.80023 19.751226,181.73113 9.9064954,165.06964 4.6183946,146.37 1.7519585,136.23379 0.51497161,128.16088 0.22078434,117.67 -0.4382389,94.16888 6.2603645,70.996665 19.435954,51.199718 27.016778,39.809173 37.53809,29.006936 48.73585,21.117501 78.46137,0.17424304 116.26511,-5.4408982 150.79427,5.9583519 c 13.74107,4.5363971 26.40259,11.6120001 37.78666,21.1162271 6.71905,5.609534 14.78479,14.387475 19.92865,21.688347 17.4408,24.754357 24.3724,55.362074 19.31341,85.281874 -6.06147,35.84868 -29.09032,66.90871 -61.74476,83.27788 -18.17638,9.11154 -39.09019,13.30064 -59.26549,11.87106 z"
   id="path4676"
   inkscape:connector-curvature="0" /><path
   style="opacity:1;fill:#f16d7f;fill-opacity:1;stroke-width:0.27075472"
   d="M 106.81274,229.19374 C 91.97336,228.14226 77.224178,224.11049 63.814016,217.43981 52.318721,211.72165 43.091267,205.06325 33.825101,195.80023 19.751226,181.73113 9.9064954,165.06964 4.6183946,146.37 1.7519585,136.23379 0.51497161,128.16088 0.22078434,117.67 -0.4382389,94.16888 6.2603645,70.996665 19.435954,51.199718 27.016778,39.809173 37.53809,29.006936 48.73585,21.117501 78.46137,0.17424304 116.26511,-5.4408982 150.79427,5.9583519 c 13.74107,4.5363971 26.40259,11.6120001 37.78666,21.1162271 6.71905,5.609534 14.78479,14.387475 19.92865,21.688347 17.4408,24.754357 24.3724,55.362074 19.31341,85.281874 -6.06147,35.84868 -29.09032,66.90871 -61.74476,83.27788 -18.17638,9.11154 -39.09019,13.30064 -59.26549,11.87106 z"
   id="path4678"
   inkscape:connector-curvature="0" /></svg>