<?xml version="1.0"?>
<svg xmlns="http://www.w3.org/2000/svg" xmlns:xlink="http://www.w3.org/1999/xlink" version="1.1" id="Capa_1" x="0px" y="0px" viewBox="0 0 513.054 513.054" style="enable-background:new 0 0 513.054 513.054;" xml:space="preserve" width="512px" height="512px" class=""><g><g>
	<g>
		<path d="M136.871,184.955c-16.264-18.262-43.86-18.394-60.207-0.165L0,270.274l31.764,28.486l74.923-83.544l74.984,84.196    l31.862-28.377L136.871,184.955z" data-original="#000000" class="active-path" data-old_color="#ffffff" fill="#ffffff"/>
	</g>
</g><g>
	<g>
		<path d="M149.764,341.891c-11.705,0-21.307-9.574-21.307-21.262V213.883H85.79v106.746c0,35.281,28.732,63.929,63.974,63.929    h192.071v-42.667H149.764z" data-original="#000000" class="active-path" data-old_color="#ffffff" fill="#ffffff"/>
	</g>
</g><g>
	<g>
		<path d="M481.29,212.715l-74.923,83.544l-74.984-84.196l-31.862,28.377l76.663,86.081c16.264,18.262,43.86,18.394,60.207,0.165    l76.663-85.485L481.29,212.715z" data-original="#000000" class="active-path" data-old_color="#ffffff" fill="#ffffff"/>
	</g>
</g><g>
	<g>
		<path d="M363.194,128.497H171.124v42.667h192.071c11.689,0,21.307,9.622,21.307,21.407v105.027h42.667V192.571    C427.168,157.226,398.452,128.497,363.194,128.497z" data-original="#000000" class="active-path" data-old_color="#ffffff" fill="#ffffff"/>
	</g>
</g></g> </svg>
