<?xml version="1.0" encoding="UTF-8" standalone="no"?>
<!-- Created with Inkscape (http://www.inkscape.org/) -->

<svg
   xmlns:dc="http://purl.org/dc/elements/1.1/"
   xmlns:cc="http://creativecommons.org/ns#"
   xmlns:rdf="http://www.w3.org/1999/02/22-rdf-syntax-ns#"
   xmlns:svg="http://www.w3.org/2000/svg"
   xmlns="http://www.w3.org/2000/svg"
   xmlns:sodipodi="http://sodipodi.sourceforge.net/DTD/sodipodi-0.dtd"
   xmlns:inkscape="http://www.inkscape.org/namespaces/inkscape"
   width="210mm"
   height="297mm"
   viewBox="0 0 210 297"
   version="1.1"
   id="svg920"
   inkscape:version="0.92.3 (2405546, 2018-03-11)"
   sodipodi:docname="right-arrow72949.svg">
  <defs
     id="defs914" />
  <sodipodi:namedview
     id="base"
     pagecolor="#ffffff"
     bordercolor="#666666"
     borderopacity="1.0"
     inkscape:pageopacity="0.0"
     inkscape:pageshadow="2"
     inkscape:zoom="2.8"
     inkscape:cx="423.75198"
     inkscape:cy="637.32292"
     inkscape:document-units="mm"
     inkscape:current-layer="layer1"
     showgrid="false"
     inkscape:window-width="1920"
     inkscape:window-height="1017"
     inkscape:window-x="-8"
     inkscape:window-y="-8"
     inkscape:window-maximized="1" />
  <metadata
     id="metadata917">
    <rdf:RDF>
      <cc:Work
         rdf:about="">
        <dc:format>image/svg+xml</dc:format>
        <dc:type
           rdf:resource="http://purl.org/dc/dcmitype/StillImage" />
        <dc:title />
      </cc:Work>
    </rdf:RDF>
  </metadata>
  <g
     inkscape:label="Layer 1"
     inkscape:groupmode="layer"
     id="layer1">
    <path
       style="opacity:1;fill:#2a2a2a;fill-opacity:1;stroke-width:0.0146828"
       d="m 31.220365,99.95065 c -0.33421,-0.0491 -0.645323,-0.20587 -0.882921,-0.44484 -0.270766,-0.27232 -0.414116,-0.58984 -0.447866,-0.99196 -0.0092,-0.10752 -0.01245,-1.91409 -0.0092,-4.90056 0.0038,-4.27778 0.0074,-4.74011 0.02857,-4.8331 0.09088,-0.39678 0.292409,-0.71684 0.597664,-0.94901 0.131397,-0.1 0.360536,-0.21057 0.537039,-0.25927 l 0.146425,-0.0404 4.850223,-0.004 c 4.471677,-0.004 4.861091,-0.002 4.989581,0.0202 0.646084,0.1134 1.143348,0.61284 1.263837,1.26947 0.01638,0.0922 0.02085,0.89923 0.02085,4.93592 0,4.61287 -2.57e-4,4.83124 -0.02553,4.94993 -0.136097,0.6323 -0.562889,1.0711 -1.197479,1.23114 -0.08864,0.0224 -0.482416,0.0246 -4.939456,0.0269 -2.680198,10e-4 -4.881597,-0.003 -4.929643,-0.0102 z m 3.127965,-2.34673 c 0.08143,-0.0418 3.618057,-3.56788 3.66315,-3.65228 0.04632,-0.0865 0.04599,-0.31176 -2.57e-4,-0.39895 -0.02077,-0.0377 -0.702345,-0.73044 -1.808651,-1.83628 -1.409273,-1.40876 -1.792866,-1.78442 -1.856128,-1.81793 -0.211376,-0.11192 -0.491356,0.004 -0.558729,0.23068 -0.02939,0.0998 -0.02729,0.17092 0.0024,0.26307 0.02625,0.0703 0.175829,0.22401 1.669271,1.71996 l 1.640035,1.64274 -1.630454,1.62594 c -1.125372,1.1222 -1.641284,1.6464 -1.665324,1.69201 -0.02734,0.0523 -0.03497,0.0891 -0.0351,0.17625 -2.54e-4,0.0952 0.0019,0.12102 0.04402,0.19008 0.04457,0.0812 0.12813,0.15332 0.217411,0.18797 0.07068,0.0274 0.23985,0.0148 0.31422,-0.0233 z"
       id="path903"
       inkscape:connector-curvature="0" />
  </g>
</svg>
